<svg height="496pt" viewBox="0 -8 496 496" width="496pt" xmlns="http://www.w3.org/2000/svg"><path d="m400 152c0-88.4375-75.527344-159.238281-165.609375-151.40625-79.054687 6.871094-138.390625 75.695312-138.390625 155.046875v.265625c0 34.160156 8.753906 67.742188 25.40625 97.566406l126.59375 226.527344 126.59375-226.527344c16.652344-29.816406 25.40625-63.40625 25.40625-97.558594zm0 0" fill="#5789d6"/><path d="m236.070312.488281c-.558593.039063-1.117187.054688-1.679687.105469-79.054687 6.871094-138.390625 75.695312-138.390625 155.046875v.265625c0 34.160156 8.753906 67.742188 25.40625 97.558594l114.59375 205.0625 114.59375-205.054688c16.652344-29.816406 25.40625-63.40625 25.40625-97.558594v-3.914062c0-79.878906-61.625-145.351562-139.929688-151.511719zm0 0" fill="#699ce6"/><path d="m368 152c0 66.273438-53.726562 120-120 120s-120-53.726562-120-120 53.726562-120 120-120 120 53.726562 120 120zm0 0" fill="#fff"/><path d="m200 80h16v64h-16zm0 0" fill="#bc8f6f"/><path d="m192 208h112v-72l-56-56-56 56zm0 0" fill="#cb9e78"/><path d="m224 208v-64h48v64" fill="#bc8f6f"/><path d="m343.441406 309.21875c76.277344 8.789062 152.558594 30.375 152.558594 66.78125 0 46.769531-127.777344 72-248 72s-248-25.230469-248-72c0-36.40625 76.28125-57.992188 152.558594-66.78125l8.464844 15.148438c-94.253907 9.882812-145.023438 33.707031-145.023438 51.632812 0 23.386719 88.257812 56 232 56s232-32.613281 232-56c0-17.925781-50.769531-41.75-145.03125-51.632812" fill="#bab8b9"/><path d="m464 416c0 22.09375-17.910156 40-40 40s-40-17.90625-40-40c0-22.089844 17.910156-40 40-40s40 17.910156 40 40zm0 0" fill="#70b48f"/><path d="m112 336c0 22.09375-17.910156 40-40 40s-40-17.90625-40-40c0-22.089844 17.910156-40 40-40s40 17.910156 40 40zm0 0" fill="#dc6068"/><path d="m424 464c-26.472656 0-48-21.527344-48-48s21.527344-48 48-48 48 21.527344 48 48-21.527344 48-48 48zm0-80c-17.648438 0-32 14.351562-32 32s14.351562 32 32 32 32-14.351562 32-32-14.351562-32-32-32zm0 0" fill="#599072"/><path d="m72 384c-26.472656 0-48-21.527344-48-48s21.527344-48 48-48 48 21.527344 48 48-21.527344 48-48 48zm0-80c-17.648438 0-32 14.351562-32 32s14.351562 32 32 32 32-14.351562 32-32-14.351562-32-32-32zm0 0" fill="#ca5057"/></svg>